# xmcd
#
# Track frame offsets: 
#        182
#        20575
#        38880
#        57722
#
# Disc length: 1180 seconds
#
# Revision: 3
# Processed by: cddbd v1.5.2PL0 Copyright (c) Steve Scherf et al.
# Submitted via: ExactAudioCopyFreeDBPlugin 1.0
#
DISCID=33049a04
DTITLE=Extreme - Decadence Dance
DYEAR=1991
DGENRE=Hard Rock
TTITLE0=Decadence Dance
TTITLE1=Money (In God We Trust)
TTITLE2=More Than Words (Acapella With Congas)
TTITLE3=Decadence Dance (LP Version)
EXTD=YEAR: 1991
EXTT0=
EXTT1=
EXTT2=
EXTT3=
PLAYORDER=
